<svg xmlns="http://www.w3.org/2000/svg" viewBox="0 0 94.49 55.02"><defs><style>.cls-1{fill:#354256;}.cls-2{fill:#0873b9;}.cls-3{fill:#df3526;}</style></defs><title>Asset 2</title><g id="Layer_2" data-name="Layer 2"><g id="Grid"><path class="cls-1" d="M93.15,0H77.88a1.34,1.34,0,0,0-1.33,1.34V6L65.72,1.53A8.32,8.32,0,0,0,62.53.9H49.38a8.27,8.27,0,0,0-5.76,2.33l-2.3,2.31H18V1.34A1.34,1.34,0,0,0,16.61,0H1.34A1.34,1.34,0,0,0,0,1.34V38.51a1.34,1.34,0,0,0,1.34,1.33H16.61A1.34,1.34,0,0,0,18,38.51v-2h7.27l9.16,15.17a6,6,0,0,0,10.3.76L45,52l.4.29a6.8,6.8,0,0,0,1.31.63,6,6,0,0,0,2,.33,6.24,6.24,0,0,0,5.16-2.89v-.46h.5a.78.78,0,0,1,.44.15h0a5.76,5.76,0,0,0,2,.34A6.2,6.2,0,0,0,62,47.53l.46-.93.4.12a6.25,6.25,0,0,0,1.66.26,6.09,6.09,0,0,0,6.05-6.1,6.19,6.19,0,0,0-.63-2.66l-.06-.1-.95-1.6h7.7v2a1.34,1.34,0,0,0,1.34,1.33H93.15a1.34,1.34,0,0,0,1.34-1.33V1.34A1.34,1.34,0,0,0,93.15,0ZM15.31,37.17H2.68V2.64H15.31ZM67.8,41.34l-.13.62a3.37,3.37,0,0,1-4.24,2.2l-.13,0a3.39,3.39,0,0,1-1.93-1.71l-.07-.11-5.82-9.62a1.43,1.43,0,0,0-.84-.61,1.37,1.37,0,0,0-1,.16,1.35,1.35,0,0,0-.44,1.85l5.88,9.56a6,6,0,0,0,.86,1.24l.24.26-.53,1a3.28,3.28,0,0,1-3.92,1.48A3.41,3.41,0,0,1,53.78,46l-.06-.09-5.86-9.73a1.33,1.33,0,0,0-.81-.65,1.37,1.37,0,0,0-1,.13,1.3,1.3,0,0,0-.63.81,1.35,1.35,0,0,0,.13,1l5.82,9.72a7.67,7.67,0,0,0,.46.71l.18.24-.41.9a3.65,3.65,0,0,1-1.37,1.31,3.41,3.41,0,0,1-4.55-1.53l-.07-.12L40,39.37a1.34,1.34,0,0,0-.8-.7,1.29,1.29,0,0,0-1,.06,1.4,1.4,0,0,0-.67.78,1.33,1.33,0,0,0,.07,1l.07.12.05.08,5.5,9.19-.47.84a3.4,3.4,0,0,1-2.92,1.67,3.42,3.42,0,0,1-3.08-2l0-.09L27.1,34.49A1.35,1.35,0,0,0,26,33.85H18V8.19H38.44L30,16.3a2.75,2.75,0,0,0-.1,3.88,3.39,3.39,0,0,0,.51.42l1.1.74a9.29,9.29,0,0,0,10,0l10.89-7,.13.22L67.47,39.44a3.41,3.41,0,0,1,.31,1.9Zm8.75-7.49H67.28l-.15-.25-13-21.7a1.39,1.39,0,0,0-.84-.62,1.37,1.37,0,0,0-1,.18L40.19,19.15a6.63,6.63,0,0,1-7.14,0l-1.24-.81L45.44,5.16a5.61,5.61,0,0,1,3.92-1.59H62.53A5.56,5.56,0,0,1,64.7,4L76.55,8.92Zm2.64,3.32V2.64H91.82l0,34.53Z"/><polygon class="cls-2" points="91.85 37.17 79.19 37.17 79.19 2.64 91.82 2.64 91.85 37.17"/><rect class="cls-3" x="2.68" y="2.64" width="12.63" height="34.53"/></g></g></svg>